<?xml version="1.0" encoding="UTF-8" standalone="no"?>
<!-- Created with Inkscape (http://www.inkscape.org/) -->

<svg
   xmlns:dc="http://purl.org/dc/elements/1.1/"
   xmlns:cc="http://creativecommons.org/ns#"
   xmlns:rdf="http://www.w3.org/1999/02/22-rdf-syntax-ns#"
   xmlns:svg="http://www.w3.org/2000/svg"
   xmlns="http://www.w3.org/2000/svg"
   version="1.1"
   width="538.58264"
   height="538.58264"
   id="svg3211">
  <defs
     id="defs3213">
    <clipPath
       id="clipPath3077">
      <path
         d="m 0,853.228 606.619,0 L 606.619,0 0,0 0,853.228 z"
         id="path3079" />
    </clipPath>
  </defs>
  <metadata
     id="metadata3216">
    <rdf:RDF>
      <cc:Work
         rdf:about="">
        <dc:format>image/svg+xml</dc:format>
        <dc:type
           rdf:resource="http://purl.org/dc/dcmitype/StillImage" />
        <dc:title></dc:title>
      </cc:Work>
    </rdf:RDF>
  </metadata>
  <g
     transform="translate(-112.69466,-253.98046)"
     id="layer1">
    <g
       transform="matrix(5.5100152,0,0,-5.5100152,-1228.6449,4835.4257)"
       id="g3073">
      <g
         clip-path="url(#clipPath3077)"
         id="g3075">
        <g
           transform="translate(314.4517,813.3174)"
           id="g3081">
          <path
             d="M 0,0 C 0.245,-0.174 0.517,-0.222 0.815,-0.147 1.114,-0.071 1.419,0.184 1.729,0.62 2.047,1.067 2.192,1.458 2.164,1.792 2.137,2.124 1.992,2.385 1.729,2.571 1.475,2.753 1.189,2.806 0.872,2.731 0.556,2.656 0.259,2.425 -0.017,2.037 -0.323,1.606 -0.459,1.205 -0.428,0.833 -0.396,0.458 -0.253,0.181 0,0 m 7.123,-6.38 c 0.194,-0.036 0.442,0.02 0.743,0.164 0.389,0.185 0.96,0.599 1.715,1.243 0.754,0.645 1.24,1.125 1.458,1.443 0.217,0.317 0.323,0.573 0.319,0.77 -0.003,0.197 -0.067,0.369 -0.195,0.519 C 11.035,-2.093 10.874,-2 10.679,-1.964 10.484,-1.929 10.237,-1.982 9.937,-2.129 9.545,-2.315 8.973,-2.731 8.218,-3.375 7.463,-4.019 6.978,-4.5 6.76,-4.817 6.542,-5.134 6.437,-5.39 6.441,-5.585 6.446,-5.781 6.513,-5.952 6.641,-6.102 6.767,-6.251 6.929,-6.343 7.123,-6.38 m 13.604,-39.994 c 0.149,0.32 0.007,0.707 -0.314,0.853 l -6.475,3 c -0.321,0.147 -0.707,0.007 -0.854,-0.315 l -0.52,-1.121 c -0.149,-0.321 -0.08,-0.802 0.153,-1.069 l 2.194,-2.518 c 0.234,-0.267 0.133,-0.483 -0.22,-0.478 l -3.342,0.039 c -0.355,0.004 -0.767,-0.253 -0.916,-0.576 L 9.914,-49.681 C 9.766,-50 9.906,-50.387 10.229,-50.534 l 6.473,-2.999 c 0.322,-0.148 0.708,-0.007 0.856,0.315 l 0.32,0.69 c 0.148,0.32 0.007,0.706 -0.315,0.853 l -3.95,1.828 c -0.32,0.15 -0.294,0.263 0.061,0.251 l 2.689,-0.08 c 0.353,-0.012 0.766,0.243 0.914,0.566 l 0.089,0.19 c 0.149,0.32 0.077,0.801 -0.16,1.063 l -1.804,1.999 c -0.237,0.262 -0.168,0.354 0.154,0.207 l 3.949,-1.829 c 0.321,-0.149 0.706,-0.007 0.855,0.313 l 0.367,0.793 z m -7.509,-12.005 -0.155,0.135 c -0.266,0.235 -0.675,0.207 -0.909,-0.06 l -0.06,-0.069 c -0.234,-0.266 -0.642,-0.294 -0.909,-0.059 l -3.12,2.732 c -0.267,0.235 -0.294,0.642 -0.061,0.908 l 0.061,0.069 c 0.234,0.267 0.206,0.677 -0.061,0.911 l -0.154,0.134 c -0.267,0.234 -0.675,0.207 -0.909,-0.06 L 4.54,-56.479 c -0.233,-0.268 -0.205,-0.677 0.061,-0.909 l 0.153,-0.136 c 0.267,-0.234 0.677,-0.207 0.91,0.06 l 0.061,0.069 c 0.233,0.267 0.641,0.294 0.909,0.062 l 3.12,-2.734 c 0.266,-0.233 0.294,-0.642 0.06,-0.909 l -0.061,-0.069 c -0.233,-0.267 -0.206,-0.676 0.061,-0.909 l 0.154,-0.135 c 0.267,-0.232 0.676,-0.207 0.909,0.06 l 2.401,2.741 c 0.234,0.267 0.207,0.676 -0.06,0.909 m -7.261,-7.411 -0.193,0.281 c -0.201,0.292 -0.605,0.365 -0.896,0.163 l -2.176,-1.502 c -0.291,-0.202 -0.693,-0.129 -0.894,0.163 l -0.452,0.654 c -0.201,0.292 -0.128,0.694 0.163,0.897 l 1.942,1.341 c 0.291,0.202 0.364,0.605 0.163,0.897 l -0.193,0.28 c -0.201,0.29 -0.605,0.364 -0.897,0.163 l -1.941,-1.343 c -0.292,-0.2 -0.694,-0.129 -0.896,0.164 l -0.094,0.137 c -0.201,0.29 -0.129,0.695 0.164,0.895 l 2.174,1.504 c 0.291,0.2 0.365,0.603 0.164,0.895 L 1.9,-59.92 c -0.202,0.292 -0.604,0.365 -0.896,0.163 l -3.951,-2.73 c -0.292,-0.202 -0.366,-0.607 -0.164,-0.897 l 4.056,-5.87 c 0.201,-0.292 0.606,-0.365 0.896,-0.163 l 3.953,2.732 c 0.292,0.201 0.365,0.605 0.163,0.895 m -10.66,-6.405 -2.202,6.785 c -0.11,0.338 -0.475,0.524 -0.813,0.413 l -0.84,-0.271 c -0.337,-0.11 -0.523,-0.476 -0.414,-0.812 l 0.554,-1.706 c 0.109,-0.339 -0.077,-0.704 -0.414,-0.812 l -1.825,-0.593 c -0.338,-0.109 -0.702,0.078 -0.812,0.414 l -0.554,1.708 c -0.109,0.336 -0.474,0.523 -0.81,0.412 l -0.842,-0.271 c -0.337,-0.111 -0.524,-0.474 -0.413,-0.812 l 2.201,-6.787 c 0.109,-0.336 0.475,-0.523 0.811,-0.414 l 0.842,0.273 c 0.337,0.11 0.524,0.474 0.413,0.812 l -0.747,2.305 c -0.109,0.336 0.077,0.701 0.414,0.809 l 1.825,0.594 c 0.337,0.11 0.703,-0.076 0.811,-0.415 l 0.748,-2.304 c 0.11,-0.336 0.474,-0.522 0.812,-0.414 l 0.841,0.274 c 0.337,0.108 0.523,0.474 0.414,0.812 m -13.538,-3.283 -0.115,7.133 c -0.007,0.354 -0.301,0.639 -0.654,0.635 l -0.704,-0.012 c -0.354,-0.007 -0.64,-0.301 -0.634,-0.655 l 0.058,-3.538 c 0.006,-0.352 -0.149,-0.4 -0.344,-0.106 l -2.441,3.701 c -0.195,0.297 -0.644,0.534 -0.998,0.527 l -1.309,-0.021 c -0.353,-0.007 -0.639,-0.301 -0.633,-0.655 l 0.116,-7.135 c 0.005,-0.354 0.299,-0.637 0.654,-0.632 l 0.703,0.011 c 0.354,0.005 0.64,0.302 0.634,0.653 l -0.073,4.494 c -0.006,0.355 0.146,0.401 0.336,0.101 l 2.974,-4.636 c 0.191,-0.299 0.637,-0.538 0.992,-0.533 l 0.806,0.013 c 0.353,0.005 0.638,0.299 0.632,0.655 m -12.057,8.524 -4.604,1.373 c -0.339,0.102 -0.7,-0.094 -0.801,-0.432 l -2.04,-6.838 c -0.102,-0.34 0.093,-0.701 0.432,-0.8 l 4.604,-1.375 c 0.34,-0.102 0.7,0.094 0.801,0.432 l 0.098,0.329 c 0.101,0.338 -0.093,0.699 -0.433,0.8 l -2.533,0.755 c -0.34,0.101 -0.535,0.462 -0.434,0.802 l 0.228,0.762 c 0.101,0.337 0.461,0.533 0.8,0.432 l 2.263,-0.674 c 0.34,-0.104 0.7,0.092 0.801,0.432 l 0.098,0.327 c 0.101,0.338 -0.093,0.699 -0.433,0.8 l -2.262,0.677 c -0.34,0.101 -0.535,0.46 -0.433,0.8 l 0.047,0.159 c 0.101,0.34 0.462,0.533 0.802,0.432 l 2.533,-0.754 c 0.339,-0.102 0.699,0.094 0.802,0.432 l 0.096,0.327 c 0.102,0.34 -0.093,0.699 -0.432,0.802 m -8.96,2.737 c -0.248,0.35 -0.573,0.713 -0.972,1.093 -0.402,0.379 -0.835,0.717 -1.305,1.014 -0.934,0.589 -1.831,0.862 -2.691,0.819 -0.859,-0.044 -1.498,-0.398 -1.917,-1.061 -0.312,-0.494 -0.441,-0.991 -0.388,-1.49 0.052,-0.501 0.317,-1.037 0.793,-1.61 0.207,-0.251 0.443,-0.499 0.706,-0.743 0.262,-0.243 0.507,-0.483 0.735,-0.715 0.217,-0.221 0.357,-0.43 0.418,-0.628 0.059,-0.195 0.041,-0.373 -0.058,-0.529 -0.106,-0.168 -0.232,-0.266 -0.377,-0.296 -0.146,-0.028 -0.308,-0.028 -0.483,0.004 -0.143,0.027 -0.312,0.09 -0.506,0.184 -0.194,0.097 -0.346,0.179 -0.458,0.248 -0.433,0.277 -0.835,0.642 -1.202,1.102 -0.368,0.46 -0.571,0.915 -0.571,0.915 -0.144,0.323 -0.308,0.617 -0.363,0.651 -0.056,0.035 -0.256,-0.181 -0.445,-0.48 l -0.733,-1.164 c 0.282,-0.4 0.609,-0.791 0.982,-1.173 0.372,-0.38 0.854,-0.755 1.444,-1.129 1.02,-0.644 1.967,-0.934 2.838,-0.872 0.872,0.064 1.529,0.446 1.972,1.148 0.31,0.49 0.432,0.972 0.366,1.444 -0.065,0.471 -0.315,0.968 -0.747,1.493 -0.221,0.262 -0.436,0.496 -0.644,0.701 -0.208,0.203 -0.427,0.414 -0.654,0.633 -0.347,0.333 -0.56,0.597 -0.639,0.788 -0.08,0.191 -0.061,0.38 0.058,0.569 0.078,0.124 0.193,0.207 0.344,0.248 0.15,0.041 0.303,0.046 0.457,0.016 0.177,-0.032 0.348,-0.085 0.512,-0.161 0.164,-0.073 0.323,-0.161 0.476,-0.258 0.434,-0.273 0.811,-0.618 1.129,-1.034 0.318,-0.419 0.426,-0.656 0.426,-0.656 0.146,-0.322 0.309,-0.616 0.363,-0.648 0.053,-0.035 0.252,0.181 0.441,0.48 l 0.693,1.097 z m -9.583,6.206 c 0.089,1.099 -0.309,2.159 -1.193,3.178 -0.886,1.023 -1.878,1.569 -2.976,1.638 -1.099,0.067 -2.159,-0.343 -3.182,-1.231 -1.016,-0.878 -1.57,-1.867 -1.663,-2.965 -0.095,-1.099 0.301,-2.159 1.188,-3.183 0.889,-1.028 1.883,-1.572 2.984,-1.637 1.1,-0.064 2.158,0.342 3.174,1.221 1.023,0.886 1.58,1.879 1.668,2.979 m -8.061,8.477 c 0.415,0.18 0.724,0.414 0.926,0.704 0.201,0.29 0.325,0.619 0.372,0.984 0.05,0.362 0.029,0.72 -0.062,1.07 -0.089,0.352 -0.194,0.614 -0.194,0.614 -0.13,0.331 -0.352,0.865 -0.493,1.189 l -0.933,2.164 c -0.14,0.325 -0.521,0.476 -0.846,0.336 l -6.551,-2.831 c -0.325,-0.14 -0.476,-0.522 -0.336,-0.846 l 0.347,-0.801 c 0.14,-0.326 0.522,-0.476 0.846,-0.336 l 1.654,0.713 c 0.324,0.14 0.68,0.049 0.79,-0.207 0.11,-0.253 0.055,-0.713 -0.123,-1.019 l -1.282,-2.212 c -0.176,-0.308 -0.208,-0.823 -0.066,-1.15 l 0.54,-1.254 c 0.142,-0.324 0.396,-0.335 0.566,-0.025 l 1.889,3.448 c 0.45,-0.389 0.914,-0.637 1.387,-0.748 0.475,-0.108 0.999,-0.039 1.569,0.207 m -7.231,22.183 c 0,-0.87 0.705,-1.573 1.573,-1.573 0.87,0 1.575,0.703 1.575,1.573 0,0.869 -0.705,1.573 -1.575,1.573 -0.868,0 -1.573,-0.704 -1.573,-1.573 m 0.737,14.044 0.33,-0.173 c 0.314,-0.166 0.705,-0.045 0.871,0.269 l 0.65,1.234 c 0.164,0.313 0.555,0.434 0.869,0.269 l 4.989,-2.628 c 0.313,-0.165 0.706,-0.043 0.87,0.27 l 0.432,0.82 c 0.165,0.313 0.044,0.705 -0.27,0.87 l -4.99,2.627 c -0.313,0.166 -0.435,0.557 -0.269,0.87 l 0.65,1.234 c 0.164,0.314 0.044,0.705 -0.27,0.871 l -0.33,0.173 c -0.313,0.164 -0.705,0.044 -0.87,-0.27 l -2.931,-5.566 c -0.166,-0.313 -0.044,-0.705 0.269,-0.87 m 8.233,9.873 c 0.426,-0.416 0.894,-0.651 1.403,-0.704 0.509,-0.054 1.1,0.097 1.773,0.451 0.295,0.153 0.591,0.335 0.89,0.545 0.299,0.21 0.589,0.405 0.869,0.582 0.269,0.169 0.505,0.264 0.716,0.283 0.208,0.018 0.38,-0.038 0.515,-0.169 0.146,-0.143 0.219,-0.289 0.216,-0.441 -0.002,-0.15 -0.038,-0.31 -0.106,-0.479 -0.058,-0.137 -0.156,-0.292 -0.293,-0.465 -0.135,-0.173 -0.251,-0.308 -0.345,-0.404 -0.365,-0.374 -0.815,-0.696 -1.352,-0.965 -0.536,-0.269 -1.047,-0.379 -1.047,-0.379 -0.346,-0.073 -0.667,-0.173 -0.714,-0.222 -0.046,-0.047 0.123,-0.288 0.377,-0.535 l 1.013,-0.988 c 0.46,0.197 0.919,0.439 1.378,0.731 0.458,0.291 0.936,0.691 1.433,1.202 0.859,0.88 1.349,1.762 1.471,2.645 0.122,0.882 -0.12,1.619 -0.726,2.209 -0.423,0.414 -0.877,0.637 -1.361,0.673 -0.486,0.033 -1.034,-0.11 -1.647,-0.429 -0.311,-0.165 -0.59,-0.329 -0.836,-0.495 -0.247,-0.164 -0.504,-0.337 -0.771,-0.517 -0.407,-0.275 -0.714,-0.431 -0.922,-0.47 -0.207,-0.04 -0.392,0.019 -0.554,0.177 -0.109,0.105 -0.166,0.238 -0.175,0.396 -0.009,0.159 0.019,0.313 0.082,0.46 0.068,0.17 0.157,0.329 0.268,0.476 0.109,0.149 0.229,0.289 0.357,0.421 0.365,0.375 0.789,0.677 1.273,0.905 0.483,0.229 0.756,0.289 0.756,0.289 0.346,0.076 0.667,0.174 0.712,0.222 0.046,0.046 -0.125,0.286 -0.379,0.533 l -0.955,0.933 c -0.401,-0.174 -0.832,-0.42 -1.297,-0.738 -0.463,-0.32 -0.892,-0.681 -1.286,-1.086 -0.787,-0.807 -1.249,-1.643 -1.388,-2.509 -0.138,-0.867 0.079,-1.579 0.652,-2.138 m 8.08,9.984 5.888,-5.197 c 0.265,-0.235 0.737,-0.29 1.048,-0.119 l 1.047,0.569 c 0.311,0.169 0.523,0.593 0.471,0.944 l -1.159,7.767 c -0.052,0.351 -0.35,0.499 -0.661,0.33 l -0.858,-0.467 c -0.312,-0.169 -0.519,-0.593 -0.46,-0.942 l 0.842,-5.019 c 0.058,-0.35 -0.107,-0.439 -0.368,-0.2 l -3.753,3.437 c -0.262,0.238 -0.73,0.296 -1.04,0.126 L -47,7.284 C -47.311,7.115 -47.348,6.785 -47.083,6.55 m 24.94,-5.254 c -17.678,0 -32.01,-14.332 -32.01,-32.011 0,-17.678 14.332,-32.012 32.01,-32.012 17.68,0 32.011,14.334 32.011,32.012 0,17.679 -14.331,32.011 -32.011,32.011 m 2.916,9.503 c 0.832,0.161 1.673,0.637 1.673,0.637 0.308,0.174 0.524,0.029 0.479,-0.323 l -0.613,-4.781 c -0.044,-0.351 0.206,-0.675 0.558,-0.72 l 0.33,-0.043 c 0.351,-0.045 0.675,0.206 0.72,0.557 l 0.915,7.145 c 0.045,0.351 -0.206,0.675 -0.556,0.72 l -0.666,0.085 c -0.25,-0.488 -0.644,-0.891 -1.184,-1.212 -0.542,-0.32 -0.853,-0.417 -0.853,-0.417 -0.338,-0.103 -0.652,-0.476 -0.697,-0.828 l -0.106,-0.82 z m 8.826,-6.25 c 0.327,-0.563 0.85,-0.984 1.567,-1.265 0.771,-0.301 1.476,-0.315 2.117,-0.041 0.642,0.274 1.106,0.773 1.389,1.501 0.173,0.44 0.211,0.872 0.115,1.298 -0.095,0.425 -0.326,0.812 -0.695,1.158 0.402,0.016 0.754,0.13 1.055,0.339 0.301,0.211 0.524,0.499 0.666,0.864 0.23,0.587 0.214,1.153 -0.05,1.699 -0.264,0.544 -0.77,0.963 -1.517,1.256 -0.757,0.296 -1.415,0.332 -1.975,0.11 C -8.289,11.246 -8.684,10.84 -8.913,10.253 -9.048,9.909 -9.082,9.559 -9.018,9.201 -8.953,8.843 -8.759,8.505 -8.433,8.188 -8.964,8.173 -9.403,8.028 -9.754,7.754 -10.106,7.48 -10.363,7.131 -10.531,6.704 -10.833,5.932 -10.79,5.213 -10.401,4.549 m 8.418,-3.567 c 0.063,-0.859 0.443,-1.535 1.139,-2.031 0.65,-0.46 1.331,-0.624 2.049,-0.492 0.716,0.132 1.325,0.551 1.826,1.256 0.472,0.664 0.66,1.347 0.567,2.046 C 3.502,2.461 3.179,3.006 2.627,3.398 2.138,3.746 1.592,3.842 0.985,3.687 1.599,4.444 2.092,4.88 2.462,4.994 2.834,5.108 3.158,5.065 3.438,4.868 3.646,4.718 3.773,4.534 3.815,4.314 L 3.858,4.096 C 3.742,3.801 3.899,3.417 4.209,3.245 L 5.025,2.791 C 5.328,3.416 5.412,3.996 5.276,4.533 5.142,5.07 4.813,5.524 4.29,5.897 3.543,6.427 2.738,6.579 1.875,6.353 1.011,6.127 0.131,5.382 -0.767,4.118 -1.642,2.886 -2.048,1.841 -1.983,0.982 m 7.031,-5.827 c -0.154,-0.794 0.035,-1.503 0.57,-2.13 0.531,-0.623 1.165,-0.921 1.901,-0.894 0.891,0.033 1.946,0.569 3.163,1.607 1.219,1.041 1.914,1.995 2.083,2.863 0.145,0.73 -0.048,1.407 -0.579,2.029 -0.533,0.623 -1.166,0.923 -1.903,0.895 C 9.392,-0.507 8.341,-1.041 7.13,-2.075 5.895,-3.128 5.201,-4.051 5.048,-4.845 m 10.78,-21.825 c 0,-0.869 0.705,-1.574 1.573,-1.574 0.87,0 1.575,0.705 1.575,1.574 0,0.869 -0.705,1.574 -1.575,1.574 -0.868,0 -1.573,-0.705 -1.573,-1.574 m 10.26,-4.045 c 0,-26.637 -21.594,-48.228 -48.231,-48.228 -26.635,0 -48.229,21.591 -48.229,48.228 0,26.636 21.594,48.229 48.229,48.229 26.637,0 48.231,-21.593 48.231,-48.229 M -8.386,4.509 c 0.312,-0.122 0.614,-0.111 0.905,0.033 0.292,0.144 0.52,0.427 0.685,0.85 0.145,0.369 0.157,0.705 0.036,1.011 -0.119,0.305 -0.339,0.52 -0.657,0.644 C -7.786,7.192 -8.11,7.172 -8.392,6.988 -8.672,6.806 -8.869,6.565 -8.985,6.268 -9.147,5.852 -9.169,5.486 -9.047,5.17 -8.925,4.854 -8.705,4.634 -8.386,4.509 m -42.845,-60.386 c -0.181,0.209 -0.388,0.373 -0.622,0.492 -0.233,0.12 -0.502,0.182 -0.806,0.189 -0.282,0.005 -0.603,-0.072 -0.962,-0.223 -0.359,-0.154 -0.723,-0.392 -1.095,-0.713 -0.378,-0.327 -0.663,-0.651 -0.855,-0.969 -0.191,-0.317 -0.31,-0.621 -0.355,-0.908 -0.043,-0.288 -0.024,-0.564 0.061,-0.824 0.087,-0.259 0.221,-0.494 0.403,-0.706 0.183,-0.211 0.398,-0.377 0.644,-0.496 0.247,-0.122 0.517,-0.18 0.812,-0.173 0.332,0.007 0.663,0.087 0.993,0.239 0.331,0.15 0.674,0.382 1.031,0.69 0.381,0.329 0.669,0.656 0.86,0.975 0.192,0.323 0.308,0.624 0.351,0.909 0.044,0.294 0.024,0.57 -0.063,0.826 -0.088,0.257 -0.22,0.487 -0.397,0.692 m -6.564,10.338 -0.057,0.131 c -0.14,0.325 -0.522,0.476 -0.846,0.336 l -0.901,-0.388 c -0.325,-0.141 -0.531,-0.394 -0.459,-0.564 0.074,-0.168 0.253,-0.566 0.402,-0.883 l 0.123,-0.202 c 0.124,-0.201 0.272,-0.35 0.446,-0.449 0.168,-0.092 0.33,-0.14 0.487,-0.15 0.158,-0.006 0.346,0.035 0.564,0.129 0.193,0.085 0.343,0.196 0.446,0.336 0.105,0.14 0.154,0.324 0.151,0.552 -0.003,0.159 -0.038,0.331 -0.103,0.515 -0.066,0.187 -0.15,0.398 -0.253,0.637 M -7.547,8.782 c -0.103,0.236 -0.097,0.504 0.021,0.804 0.11,0.283 0.285,0.477 0.524,0.581 0.239,0.104 0.504,0.101 0.795,-0.013 0.278,-0.109 0.47,-0.283 0.573,-0.518 C -5.53,9.399 -5.533,9.139 -5.644,8.856 -5.763,8.555 -5.94,8.354 -6.179,8.251 -6.417,8.147 -6.679,8.152 -6.967,8.265 -7.249,8.375 -7.442,8.548 -7.547,8.782 M -37.88,-28.721 c -1.772,-0.001 -3.189,-0.948 -3.158,-2.405 0.03,-1.457 1.497,-2.867 3.27,-2.869 1.425,0 1.279,1.207 1.249,2.665 -0.031,1.456 0.247,2.609 -1.361,2.609 m 7.338,-4.05 c -0.364,-0.421 -0.45,-0.944 -0.104,-1.245 0.348,-0.299 0.995,-0.26 1.358,0.161 0.365,0.421 -0.012,0.552 -0.358,0.851 -0.347,0.301 -0.532,0.653 -0.896,0.233 m -11.167,-2.924 c -0.853,0.713 -2.062,2.19 -2.567,3.766 -0.652,2.03 0.984,3.947 2.309,4.78 2.713,1.705 4.961,1.512 5.148,1.969 1.289,3.118 -2.725,10.562 -0.816,11.609 2.562,1.404 8.579,4.421 8.825,3.269 0.813,-3.802 -1.191,-16.355 -0.329,-16.753 2.104,-0.969 6.285,-4.43 7.143,-4.53 4.487,-0.524 11.952,4.601 12.422,13.175 0.2,3.652 -2.619,8.031 -10.663,9.406 -17.336,2.963 -24.902,-6.893 -25.44,-6.182 -1.591,2.102 12.153,13.346 24.069,13.1 25.906,-0.534 25.306,-20.198 16.426,-27.768 -3.893,-3.32 -7.125,-4.504 -11.11,-6.029 -0.586,-0.226 -1.544,-0.651 -1.068,-1.394 0.498,-0.778 3.65,-4.196 7.745,-6.946 2.737,-1.838 6.538,-0.913 9.156,-0.789 0.79,0.039 0.105,-1.09 -3.241,-4.168 -0.841,-0.772 -4.34,-4.041 -6.818,-3.974 -3.687,0.099 -10.909,9.8 -13.699,14.517 -0.675,1.417 -3.628,0.621 -6.647,0.541 -0.999,-0.028 -1.155,-0.506 -3.512,-7.983 -1.647,-5.226 -3.806,-9.032 -5.112,-8.922 -0.359,0.032 -0.755,0.417 -0.46,1.397 0.916,3.038 3.29,14.438 2.818,15.646 -0.504,1.29 -2.495,0.515 -4.579,2.263"
             id="path3083"
             style="fill:#ee232b;fill-opacity:1;fill-rule:nonzero;stroke:none" />
        </g>
      </g>
    </g>
  </g>
</svg>
