<svg height="538.58264" width="538.58264" xmlns="http://www.w3.org/2000/svg" xmlns:xlink="http://www.w3.org/1999/xlink"><clipPath id="a"><path d="m0 853.228h606.619v-853.228h-606.619z"/></clipPath><g clip-path="url(#a)" transform="matrix(5.5100152 0 0 -5.5100152 -1341.33956 4581.44524)"><path d="m0 0c.245-.174.517-.222.815-.147.299.076.604.331.914.767.318.447.463.838.435 1.172-.027.332-.172.593-.435.779-.254.182-.54.235-.857.16-.316-.075-.613-.306-.889-.694-.306-.431-.442-.832-.411-1.204.032-.375.175-.652.428-.833m7.123-6.38c.194-.036.442.02.743.164.389.185.96.599 1.715 1.243.754.645 1.24 1.125 1.458 1.443.217.317.323.573.319.77-.003.197-.067.369-.195.519-.128.148-.289.241-.484.277-.195.035-.442-.018-.742-.165-.392-.186-.964-.602-1.719-1.246s-1.24-1.125-1.458-1.442-.323-.573-.319-.768c.005-.196.072-.367.2-.517.126-.149.288-.241.482-.278m13.604-39.994c.149.32.007.707-.314.853l-6.475 3c-.321.147-.707.007-.854-.315l-.52-1.121c-.149-.321-.08-.802.153-1.069l2.194-2.518c.234-.267.133-.483-.22-.478l-3.342.039c-.355.004-.767-.253-.916-.576l-.519-1.122c-.148-.319-.008-.706.315-.853l6.473-2.999c.322-.148.708-.007.856.315l.32.69c.148.32.007.706-.315.853l-3.95 1.828c-.32.15-.294.263.061.251l2.689-.08c.353-.012.766.243.914.566l.089.19c.149.32.077.801-.16 1.063l-1.804 1.999c-.237.262-.168.354.154.207l3.949-1.829c.321-.149.706-.007.855.313zm-7.509-12.005-.155.135c-.266.235-.675.207-.909-.06l-.06-.069c-.234-.266-.642-.294-.909-.059l-3.12 2.732c-.267.235-.294.642-.061.908l.061.069c.234.267.206.677-.061.911l-.154.134c-.267.234-.675.207-.909-.06l-2.401-2.741c-.233-.268-.205-.677.061-.909l.153-.136c.267-.234.677-.207.91.06l.061.069c.233.267.641.294.909.062l3.12-2.734c.266-.233.294-.642.06-.909l-.061-.069c-.233-.267-.206-.676.061-.909l.154-.135c.267-.232.676-.207.909.06l2.401 2.741c.234.267.207.676-.06.909m-7.261-7.411-.193.281c-.201.292-.605.365-.896.163l-2.176-1.502c-.291-.202-.693-.129-.894.163l-.452.654c-.201.292-.128.694.163.897l1.942 1.341c.291.202.364.605.163.897l-.193.28c-.201.29-.605.364-.897.163l-1.941-1.343c-.292-.2-.694-.129-.896.164l-.094.137c-.201.29-.129.695.164.895l2.174 1.504c.291.2.365.603.164.895l-.195.281c-.202.292-.604.365-.896.163l-3.951-2.73c-.292-.202-.366-.607-.164-.897l4.056-5.87c.201-.292.606-.365.896-.163l3.953 2.732c.292.201.365.605.163.895m-10.66-6.405-2.202 6.785c-.11.338-.475.524-.813.413l-.84-.271c-.337-.11-.523-.476-.414-.812l.554-1.706c.109-.339-.077-.704-.414-.812l-1.825-.593c-.338-.109-.702.078-.812.414l-.554 1.708c-.109.336-.474.523-.81.412l-.842-.271c-.337-.111-.524-.474-.413-.812l2.201-6.787c.109-.336.475-.523.811-.414l.842.273c.337.11.524.474.413.812l-.747 2.305c-.109.336.077.701.414.809l1.825.594c.337.11.703-.076.811-.415l.748-2.304c.11-.336.474-.522.812-.414l.841.274c.337.108.523.474.414.812m-13.538-3.283-.115 7.133c-.007.354-.301.639-.654.635l-.704-.012c-.354-.007-.64-.301-.634-.655l.058-3.538c.006-.352-.149-.4-.344-.106l-2.441 3.701c-.195.297-.644.534-.998.527l-1.309-.021c-.353-.007-.639-.301-.633-.655l.116-7.135c.005-.354.299-.637.654-.632l.703.011c.354.005.64.302.634.653l-.073 4.494c-.006.355.146.401.336.101l2.974-4.636c.191-.299.637-.538.992-.533l.806.013c.353.005.638.299.632.655m-12.057 8.524-4.604 1.373c-.339.102-.7-.094-.801-.432l-2.04-6.838c-.102-.34.093-.701.432-.8l4.604-1.375c.34-.102.7.094.801.432l.098.329c.101.338-.093.699-.433.8l-2.533.755c-.34.101-.535.462-.434.802l.228.762c.101.337.461.533.8.432l2.263-.674c.34-.104.7.092.801.432l.098.327c.101.338-.093.699-.433.8l-2.262.677c-.34.101-.535.46-.433.8l.047.159c.101.34.462.533.802.432l2.533-.754c.339-.102.699.094.802.432l.096.327c.102.34-.093.699-.432.802m-8.96 2.737c-.248.35-.573.713-.972 1.093-.402.379-.835.717-1.305 1.014-.934.589-1.831.862-2.691.819-.859-.044-1.498-.398-1.917-1.061-.312-.494-.441-.991-.388-1.49.052-.501.317-1.037.793-1.61.207-.251.443-.499.706-.743.262-.243.507-.483.735-.715.217-.221.357-.43.418-.628.059-.195.041-.373-.058-.529-.106-.168-.232-.266-.377-.296-.146-.028-.308-.028-.483.004-.143.027-.312.09-.506.184-.194.097-.346.179-.458.248-.433.277-.835.642-1.202 1.102-.368.46-.571.915-.571.915-.144.323-.308.617-.363.651-.056.035-.256-.181-.445-.48l-.733-1.164c.282-.4.609-.791.982-1.173.372-.38.854-.755 1.444-1.129 1.02-.644 1.967-.934 2.838-.872.872.064 1.529.446 1.972 1.148.31.49.432.972.366 1.444-.065.471-.315.968-.747 1.493-.221.262-.436.496-.644.701-.208.203-.427.414-.654.633-.347.333-.56.597-.639.788-.08.191-.061.38.058.569.078.124.193.207.344.248.15.041.303.046.457.016.177-.032.348-.085.512-.161.164-.073.323-.161.476-.258.434-.273.811-.618 1.129-1.034.318-.419.426-.656.426-.656.146-.322.309-.616.363-.648.053-.035.252.181.441.48zm-9.583 6.206c.089 1.099-.309 2.159-1.193 3.178-.886 1.023-1.878 1.569-2.976 1.638-1.099.067-2.159-.343-3.182-1.231-1.016-.878-1.57-1.867-1.663-2.965-.095-1.099.301-2.159 1.188-3.183.889-1.028 1.883-1.572 2.984-1.637 1.1-.064 2.158.342 3.174 1.221 1.023.886 1.58 1.879 1.668 2.979m-8.061 8.477c.415.18.724.414.926.704.201.29.325.619.372.984.05.362.029.72-.062 1.07-.089.352-.194.614-.194.614-.13.331-.352.865-.493 1.189l-.933 2.164c-.14.325-.521.476-.846.336l-6.551-2.831c-.325-.14-.476-.522-.336-.846l.347-.801c.14-.326.522-.476.846-.336l1.654.713c.324.14.68.049.79-.207.11-.253.055-.713-.123-1.019l-1.282-2.212c-.176-.308-.208-.823-.066-1.15l.54-1.254c.142-.324.396-.335.566-.025l1.889 3.448c.45-.389.914-.637 1.387-.748.475-.108.999-.039 1.569.207m-7.231 22.183c0-.87.705-1.573 1.573-1.573.87 0 1.575.703 1.575 1.573 0 .869-.705 1.573-1.575 1.573-.868 0-1.573-.704-1.573-1.573m.737 14.044.33-.173c.314-.166.705-.045.871.269l.65 1.234c.164.313.555.434.869.269l4.989-2.628c.313-.165.706-.043.87.27l.432.82c.165.313.044.705-.27.87l-4.99 2.627c-.313.166-.435.557-.269.87l.65 1.234c.164.314.044.705-.27.871l-.33.173c-.313.164-.705.044-.87-.27l-2.931-5.566c-.166-.313-.044-.705.269-.87m8.233 9.873c.426-.416.894-.651 1.403-.704.509-.054 1.1.097 1.773.451.295.153.591.335.89.545s.589.405.869.582c.269.169.505.264.716.283.208.018.38-.038.515-.169.146-.143.219-.289.216-.441-.002-.15-.038-.31-.106-.479-.058-.137-.156-.292-.293-.465-.135-.173-.251-.308-.345-.404-.365-.374-.815-.696-1.352-.965-.536-.269-1.047-.379-1.047-.379-.346-.073-.667-.173-.714-.222-.046-.047.123-.288.377-.535l1.013-.988c.46.197.919.439 1.378.731.458.291.936.691 1.433 1.202.859.88 1.349 1.762 1.471 2.645.122.882-.12 1.619-.726 2.209-.423.414-.877.637-1.361.673-.486.033-1.034-.11-1.647-.429-.311-.165-.59-.329-.836-.495-.247-.164-.504-.337-.771-.517-.407-.275-.714-.431-.922-.47-.207-.04-.392.019-.554.177-.109.105-.166.238-.175.396-.009.159.019.313.082.46.068.17.157.329.268.476.109.149.229.289.357.421.365.375.789.677 1.273.905.483.229.756.289.756.289.346.076.667.174.712.222.046.046-.125.286-.379.533l-.955.933c-.401-.174-.832-.42-1.297-.738-.463-.32-.892-.681-1.286-1.086-.787-.807-1.249-1.643-1.388-2.509-.138-.867.079-1.579.652-2.138m8.08 9.984 5.888-5.197c.265-.235.737-.29 1.048-.119l1.047.569c.311.169.523.593.471.944l-1.159 7.767c-.052.351-.35.499-.661.33l-.858-.467c-.312-.169-.519-.593-.46-.942l.842-5.019c.058-.35-.107-.439-.368-.2l-3.753 3.437c-.262.238-.73.296-1.04.126l-.914-.495c-.311-.169-.348-.499-.083-.734m24.94-5.254c-17.678 0-32.01-14.332-32.01-32.011 0-17.678 14.332-32.012 32.01-32.012 17.68 0 32.011 14.334 32.011 32.012 0 17.679-14.331 32.011-32.011 32.011m2.916 9.503c.832.161 1.673.637 1.673.637.308.174.524.029.479-.323l-.613-4.781c-.044-.351.206-.675.558-.72l.33-.043c.351-.045.675.206.72.557l.915 7.145c.045.351-.206.675-.556.72l-.666.085c-.25-.488-.644-.891-1.184-1.212-.542-.32-.853-.417-.853-.417-.338-.103-.652-.476-.697-.828zm8.826-6.25c.327-.563.85-.984 1.567-1.265.771-.301 1.476-.315 2.117-.041.642.274 1.106.773 1.389 1.501.173.44.211.872.115 1.298-.095.425-.326.812-.695 1.158.402.016.754.13 1.055.339.301.211.524.499.666.864.23.587.214 1.153-.05 1.699-.264.544-.77.963-1.517 1.256-.757.296-1.415.332-1.975.11-.56-.222-.955-.628-1.184-1.215-.135-.344-.169-.694-.105-1.052.065-.358.259-.696.585-1.013-.531-.015-.97-.16-1.321-.434-.352-.274-.609-.623-.777-1.05-.302-.772-.259-1.491.13-2.155m8.418-3.567c.063-.859.443-1.535 1.139-2.031.65-.46 1.331-.624 2.049-.492.716.132 1.325.551 1.826 1.256.472.664.66 1.347.567 2.046-.096.7-.419 1.245-.971 1.637-.489.348-1.035.444-1.642.289.614.757 1.107 1.193 1.477 1.307.372.114.696.071.976-.126.208-.15.335-.334.377-.554l.043-.218c-.116-.295.041-.679.351-.851l.816-.454c.303.625.387 1.205.251 1.742-.134.537-.463.991-.986 1.364-.747.53-1.552.682-2.415.456-.864-.226-1.744-.971-2.642-2.235-.875-1.232-1.281-2.277-1.216-3.136m7.031-5.827c-.154-.794.035-1.503.57-2.13.531-.623 1.165-.921 1.901-.894.891.033 1.946.569 3.163 1.607 1.219 1.041 1.914 1.995 2.083 2.863.145.73-.048 1.407-.579 2.029-.533.623-1.166.923-1.903.895-.891-.032-1.942-.566-3.153-1.6-1.235-1.053-1.929-1.976-2.082-2.77m10.78-21.825c0-.869.705-1.574 1.573-1.574.87 0 1.575.705 1.575 1.574s-.705 1.574-1.575 1.574c-.868 0-1.573-.705-1.573-1.574m10.26-4.045c0-26.637-21.594-48.228-48.231-48.228-26.635 0-48.229 21.591-48.229 48.228 0 26.636 21.594 48.229 48.229 48.229 26.637 0 48.231-21.593 48.231-48.229m-34.474 35.224c.312-.122.614-.111.905.033.292.144.52.427.685.85.145.369.157.705.036 1.011-.119.305-.339.52-.657.644-.369.145-.693.125-.975-.059-.28-.182-.477-.423-.593-.72-.162-.416-.184-.782-.062-1.098s.342-.536.661-.661m-42.845-60.386c-.181.209-.388.373-.622.492-.233.12-.502.182-.806.189-.282.005-.603-.072-.962-.223-.359-.154-.723-.392-1.095-.713-.378-.327-.663-.651-.855-.969-.191-.317-.31-.621-.355-.908-.043-.288-.024-.564.061-.824.087-.259.221-.494.403-.706.183-.211.398-.377.644-.496.247-.122.517-.18.812-.173.332.007.663.087.993.239.331.15.674.382 1.031.69.381.329.669.656.86.975.192.323.308.624.351.909.044.294.024.57-.063.826-.088.257-.22.487-.397.692m-6.564 10.338-.057.131c-.14.325-.522.476-.846.336l-.901-.388c-.325-.141-.531-.394-.459-.564.074-.168.253-.566.402-.883l.123-.202c.124-.201.272-.35.446-.449.168-.092.33-.14.487-.15.158-.006.346.035.564.129.193.085.343.196.446.336.105.14.154.324.151.552-.003.159-.038.331-.103.515-.066.187-.15.398-.253.637m50.248 54.321c-.103.236-.097.504.021.804.11.283.285.477.524.581s.504.101.795-.013c.278-.109.47-.283.573-.518.104-.237.101-.497-.01-.78-.119-.301-.296-.502-.535-.605-.238-.104-.5-.099-.788.014-.282.11-.475.283-.58.517m-30.333-37.503c-1.772-.001-3.189-.948-3.158-2.405.03-1.457 1.497-2.867 3.27-2.869 1.425 0 1.279 1.207 1.249 2.665-.031 1.456.247 2.609-1.361 2.609m7.338-4.05c-.364-.421-.45-.944-.104-1.245.348-.299.995-.26 1.358.161.365.421-.012.552-.358.851-.347.301-.532.653-.896.233m-11.167-2.924c-.853.713-2.062 2.19-2.567 3.766-.652 2.03.984 3.947 2.309 4.78 2.713 1.705 4.961 1.512 5.148 1.969 1.289 3.118-2.725 10.562-.816 11.609 2.562 1.404 8.579 4.421 8.825 3.269.813-3.802-1.191-16.355-.329-16.753 2.104-.969 6.285-4.43 7.143-4.53 4.487-.524 11.952 4.601 12.422 13.175.2 3.652-2.619 8.031-10.663 9.406-17.336 2.963-24.902-6.893-25.44-6.182-1.591 2.102 12.153 13.346 24.069 13.1 25.906-.534 25.306-20.198 16.426-27.768-3.893-3.32-7.125-4.504-11.11-6.029-.586-.226-1.544-.651-1.068-1.394.498-.778 3.65-4.196 7.745-6.946 2.737-1.838 6.538-.913 9.156-.789.79.039.105-1.09-3.241-4.168-.841-.772-4.34-4.041-6.818-3.974-3.687.099-10.909 9.8-13.699 14.517-.675 1.417-3.628.621-6.647.541-.999-.028-1.155-.506-3.512-7.983-1.647-5.226-3.806-9.032-5.112-8.922-.359.032-.755.417-.46 1.397.916 3.038 3.29 14.438 2.818 15.646-.504 1.29-2.495.515-4.579 2.263" fill="#ee232b" transform="translate(314.4517 813.3174)"/></g></svg>